<svg xmlns="http://www.w3.org/2000/svg" viewBox="0 0 64 64">
  <!-- Dark navy background -->
  <rect width="64" height="64" rx="14" fill="#0f172a"/>
  <!-- Gear icon scaled from Heroicons cog-6-tooth (24→64) -->
  <g transform="translate(8, 8) scale(2)">
    <path fill="#3b82f6" fill-rule="evenodd" clip-rule="evenodd"
      d="M11.078 2.25c-.917 0-1.699.663-1.85 1.567L9.05 5.02a7.73 7.73 0 0 0-1.296.752l-1.388-.392A1.875 1.875 0 0 0 4.11 6.31L2.813 8.587A1.875 1.875 0 0 0 3.21 10.85l1.143.94a7.62 7.62 0 0 0 0 1.508l-1.144.94a1.875 1.875 0 0 0-.398 2.264l1.298 2.276a1.875 1.875 0 0 0 2.255.932l1.388-.392a7.73 7.73 0 0 0 1.296.752l.178 1.203c.15.904.933 1.567 1.85 1.567h2.593c.917 0 1.699-.663 1.85-1.567l.178-1.203a7.73 7.73 0 0 0 1.296-.752l1.388.392a1.875 1.875 0 0 0 2.255-.932l1.298-2.276a1.875 1.875 0 0 0-.398-2.264l-1.144-.94a7.62 7.62 0 0 0 0-1.508l1.144-.94a1.875 1.875 0 0 0 .398-2.263L18.89 6.31a1.875 1.875 0 0 0-2.255-.932l-1.388.392a7.73 7.73 0 0 0-1.296-.752l-.178-1.203A1.875 1.875 0 0 0 11.922 2.25h-2.844ZM12 15.75a3.75 3.75 0 1 0 0-7.5 3.75 3.75 0 0 0 0 7.5Z"
    />
    <!-- Inner circle hole -->
    <circle cx="12" cy="12" r="2.5" fill="#0f172a"/>
  </g>
</svg>
